<svg width="103" height="103" viewBox="0 0 103 103" fill="none" xmlns="http://www.w3.org/2000/svg">
<path d="M41.4864 93.6675L26.7468 97.4398C13.9297 100.719 2.27856 89.0713 5.56091 76.2546L9.33332 61.5155C11.0135 54.9456 11.0135 48.0606 9.33332 41.4908L5.56091 26.7462C2.28125 13.9295 13.9297 2.28143 26.7468 5.56099L41.4891 9.33329C48.0591 11.0135 54.9443 11.0135 61.5144 9.33329L76.2567 5.56099C89.071 2.27874 100.719 13.9268 97.4398 26.7462L93.6674 41.4881C91.9872 48.058 91.9872 54.9456 93.6674 61.5155L97.4398 76.2519C100.719 89.0686 89.071 100.719 76.254 97.4398L61.5117 93.6675C54.9416 91.9874 48.0564 91.9874 41.4864 93.6675Z" fill="#A7F3D0" stroke="#A7F3D0" stroke-opacity="0.3" stroke-width="10" stroke-linecap="round" stroke-linejoin="round"/>
<path d="M23 66.4659V37.5341H36.3149C41.3639 37.5341 44.983 41.184 44.983 46.2137C44.983 50.3086 42.6149 53.4243 38.9958 54.4926L45.6979 66.4659H41.2298L34.9745 54.8487H26.7532V66.4659H23ZM26.7532 51.3769H35.9575C38.9064 51.3769 41.0511 49.2404 41.0511 46.2582C41.0511 43.276 38.9958 41.095 36.1362 41.095H26.7532V51.3769Z" fill="black"/>
<path d="M51.3955 66.822C49.7423 66.822 48.5359 65.5757 48.5359 63.8843C48.5359 62.1929 49.7423 60.9466 51.3955 60.9466C53.0486 60.9466 54.255 62.1929 54.255 63.8843C54.255 65.5757 53.0486 66.822 51.3955 66.822Z" fill="black"/>
<path d="M69.4553 67C62.8872 67 58.017 63.0831 57.6595 57.3858L61.7702 56.3175C61.9489 60.4125 65.1212 63.3501 69.5447 63.3501C73.1191 63.3501 75.8894 61.3917 75.8894 58.632C75.8894 51.7329 58.9106 53.8249 58.9106 44.5668C58.9106 39.9377 63.2 37 68.651 37C74.1915 37 78.3915 40.1157 78.9277 44.7448L74.817 45.9021C74.4596 42.8754 71.9574 40.5608 68.3829 40.5608C65.5234 40.5608 63.0212 42.0742 63.0212 44.3887C63.0212 50.4421 80 48.6617 80 58.632C80 63.5727 75.7553 67 69.4553 67Z" fill="black"/>
</svg>
